<?xml version="1.0" encoding="UTF-8" standalone="no"?>
<svg
   xmlns:dc="http://purl.org/dc/elements/1.1/"
   xmlns:cc="http://creativecommons.org/ns#"
   xmlns:rdf="http://www.w3.org/1999/02/22-rdf-syntax-ns#"
   xmlns:svg="http://www.w3.org/2000/svg"
   xmlns="http://www.w3.org/2000/svg"
   xmlns:xlink="http://www.w3.org/1999/xlink"
   viewBox="0 0 613.33331 514.66669"
   height="514.66669"
   width="613.33331"
   id="svg1481"
   version="1.1">
  <metadata
     id="metadata1487">
    <rdf:RDF>
      <cc:Work
         rdf:about="">
        <dc:format>image/svg+xml</dc:format>
        <dc:type
           rdf:resource="http://purl.org/dc/dcmitype/StillImage" />
        <dc:title></dc:title>
      </cc:Work>
    </rdf:RDF>
  </metadata>
  <defs
     id="defs1485">
    <linearGradient
       id="linearGradient3265">
      <stop
         id="stop3261"
         offset="0"
         style="stop-color:#ff8700;stop-opacity:1" />
      <stop
         id="stop3263"
         offset="1"
         style="stop-color:#fff281;stop-opacity:0.52549022" />
    </linearGradient>
    <linearGradient
       id="linearGradient3257">
      <stop
         id="stop3253"
         offset="0"
         style="stop-color:#41b844;stop-opacity:1;" />
      <stop
         id="stop3255"
         offset="1"
         style="stop-color:#c7e327;stop-opacity:0.66274512" />
    </linearGradient>
    <linearGradient
       id="linearGradient3249">
      <stop
         id="stop3245"
         offset="0"
         style="stop-color:#5dc60f;stop-opacity:1" />
      <stop
         id="stop3247"
         offset="1"
         style="stop-color:#d1ca19;stop-opacity:0.67356324" />
    </linearGradient>
    <linearGradient
       gradientUnits="userSpaceOnUse"
       y2="286.72018"
       x2="309.43539"
       y1="399.64862"
       x1="297.87878"
       id="linearGradient3251"
       xlink:href="#linearGradient3249" />
    <linearGradient
       gradientUnits="userSpaceOnUse"
       y2="185.06041"
       x2="365.77414"
       y1="130.97365"
       x1="397.62097"
       id="linearGradient3259"
       xlink:href="#linearGradient3257" />
    <linearGradient
       y2="289.18979"
       x2="430.13333"
       y1="138.22859"
       x1="171.31734"
       gradientUnits="userSpaceOnUse"
       id="linearGradient3269"
       xlink:href="#linearGradient3265" />
  </defs>
  <path
     id="path1491"
     d="M 171.55556,76.882308 C 431.43047,228.10536 431.43047,227.46997 431.43047,227.46997 V 357.72512 L 170.92017,207.13746 Z"
     style="fill:url(#linearGradient3269);stroke:#000000;stroke-width:1px;stroke-linecap:butt;stroke-linejoin:miter;stroke-opacity:1;fill-opacity:1" />
  <path
     id="path1493"
     d="m 237.47738,152.49383 0.15884,18.74404 -33.51687,18.90288 33.19918,18.10864 -0.3177,18.10864 -48.9251,-26.52757 -0.47655,-18.90288 z"
     style="fill:none;stroke:#000000;stroke-width:1px;stroke-linecap:butt;stroke-linejoin:miter;stroke-opacity:1" />
  <path
     id="path1499"
     d="m 431.43047,357.72512 -137.146,73.37376 -123.0466,-71.78529 138.19753,-72.59341 z"
     style="fill:none;stroke:#000000;stroke-width:1px;stroke-linecap:butt;stroke-linejoin:miter;stroke-opacity:1" />
  <path
     id="path1501"
     d="M 431.43047,227.46997 431.76698,77.957521 302.82096,152.98883 Z"
     style="fill:url(#linearGradient3259);stroke:#000000;stroke-width:1px;stroke-linecap:butt;stroke-linejoin:miter;stroke-opacity:1;fill-opacity:1" />
  <path
     id="path1511"
     d="m 233.74537,394.82315 c -33.40916,-18.76905 -60.18436,-35.26142 -60.18436,-35.45507 0,-0.45109 134.52852,-71.13413 135.38706,-71.13413 0.35375,0 27.67626,15.62863 60.71669,34.7303 38.38724,22.19281 59.7661,34.89872 59.22193,35.19684 -10.69675,5.86013 -134.79218,71.6155 -134.54401,71.76504 1.10728,0.6672 -15.99815,-10.04745 -60.59731,-35.10298 z"
     style="opacity:1;fill:url(#linearGradient3251);fill-opacity:1;fill-rule:evenodd;stroke-width:1;stroke:none" />
  <path
     id="path1531"
     d="m 212.35725,212.07326 -23.19177,-12.59861 -0.44368,-8.83435 c -0.24402,-4.85889 -0.24402,-9.02238 0,-9.2522 0.65208,-0.61413 47.38454,-27.19472 47.53579,-27.03752 0.0707,0.0735 0.21623,3.80802 0.32346,8.29902 l 0.19496,8.16544 -16.56184,9.30781 c -9.10902,5.11929 -16.63566,9.57884 -16.72587,9.91012 -0.0902,0.33127 7.22952,4.64304 16.26605,9.58171 l 16.43007,8.97941 0.17783,8.05038 c 0.0978,4.42771 -0.0452,8.04521 -0.3177,8.03889 -0.27254,-0.006 -10.93182,-5.68087 -23.6873,-12.6101 z"
     style="opacity:1;fill:#f9f9f9;fill-opacity:1;stroke-width:1" />
</svg>
