<?xml version="1.0" encoding="UTF-8" standalone="no"?>
<svg
   xmlns:dc="http://purl.org/dc/elements/1.1/"
   xmlns:cc="http://creativecommons.org/ns#"
   xmlns:rdf="http://www.w3.org/1999/02/22-rdf-syntax-ns#"
   xmlns:svg="http://www.w3.org/2000/svg"
   xmlns="http://www.w3.org/2000/svg"
   viewBox="0 0 613.33331 514.66669"
   height="514.66669"
   width="613.33331"
   id="svg1481"
   version="1.1">
  <metadata
     id="metadata1487">
    <rdf:RDF>
      <cc:Work
         rdf:about="">
        <dc:format>image/svg+xml</dc:format>
        <dc:type
           rdf:resource="http://purl.org/dc/dcmitype/StillImage" />
        <dc:title></dc:title>
      </cc:Work>
    </rdf:RDF>
  </metadata>
  <defs
     id="defs1485" />
  <path
     id="path1491"
     d="M 171.55556,76.882308 C 431.43047,228.10536 431.43047,227.46997 431.43047,227.46997 V 357.72512 L 170.92017,207.13746 Z"
     style="fill:none;stroke:#000000;stroke-width:1px;stroke-linecap:butt;stroke-linejoin:miter;stroke-opacity:1" />
  <path
     id="path1493"
     d="m 237.47738,152.49383 0.15884,18.74404 -33.51687,18.90288 33.19918,18.10864 -0.3177,18.10864 -48.9251,-26.52757 -0.47655,-18.90288 z"
     style="fill:none;stroke:#000000;stroke-width:1px;stroke-linecap:butt;stroke-linejoin:miter;stroke-opacity:1" />
  <path
     id="path1499"
     d="m 431.43047,357.72512 -137.146,73.37376 -123.0466,-71.78529 138.19753,-72.59341 z"
     style="fill:none;stroke:#000000;stroke-width:1px;stroke-linecap:butt;stroke-linejoin:miter;stroke-opacity:1" />
  <path
     id="path1501"
     d="M 431.43047,227.46997 431.76698,77.957521 302.82096,152.98883 Z"
     style="fill:none;stroke:#000000;stroke-width:1px;stroke-linecap:butt;stroke-linejoin:miter;stroke-opacity:1" />
  <path
     id="path1511"
     d="m 233.74537,394.82315 c -33.1014,-19.30664 -60.18436,-35.26142 -60.18436,-35.45507 0,-0.45109 134.52852,-71.13413 135.38706,-71.13413 0.35375,0 27.67626,15.62863 60.71669,34.7303 38.38724,22.19281 59.7661,34.89872 59.22193,35.19684 -10.69675,5.86013 -134.25427,71.76504 -134.54401,71.76504 -0.22713,0 -27.49592,-15.79634 -60.59731,-35.10298 z"
     style="opacity:0.01000001;fill:#008000;fill-opacity:1;stroke-width:1" />
  <path
     id="path1531"
     d="m 212.35725,212.07326 -23.19177,-12.59861 -0.44368,-8.83435 c -0.24402,-4.85889 -0.24402,-9.02238 0,-9.2522 0.65208,-0.61413 47.38454,-27.19472 47.53579,-27.03752 0.0707,0.0735 0.21623,3.80802 0.32346,8.29902 l 0.19496,8.16544 -16.56184,9.30781 c -9.10902,5.11929 -16.63566,9.57884 -16.72587,9.91012 -0.0902,0.33127 7.22952,4.64304 16.26605,9.58171 l 16.43007,8.97941 0.17783,8.05038 c 0.0978,4.42771 -0.0452,8.04521 -0.3177,8.03889 -0.27254,-0.006 -10.93182,-5.68087 -23.6873,-12.6101 z"
     style="opacity:0.01000001;fill:#ff9955;fill-opacity:1;stroke-width:1" />
</svg>
